# xmcd
#
# Track frame offsets: 
#        150
#        12440
#        29218
#        50960
#        66897
#        79734
#        90975
#        109078
#        130799
#        145008
#        156341
#
# Disc length: 2344 seconds
#
# Revision: 2
# Processed by: cddbd v1.5.2PL0 Copyright (c) Steve Scherf et al.
# Submitted via: ExactAudioCopy v1.1
#
DISCID=9609260b
DTITLE=Howlin' Wolf - The Back Door Wolf
DYEAR=1973
DGENRE=Blues
TTITLE0=Moving
TTITLE1=Coon On The Moon
TTITLE2=Speak Now Woman
TTITLE3=Trying To Forget You
TTITLE4=Stop Using Me
TTITLE5=Leave Here Walking
TTITLE6=The Back Door Wolf
TTITLE7=You Turn Slick On Me
TTITLE8=Watergate Blues
TTITLE9=Can't Stay Here
TTITLE10=Speak Now Woman (alt)
EXTD=
EXTT0=
EXTT1=
EXTT2=
EXTT3=
EXTT4=
EXTT5=
EXTT6=
EXTT7=
EXTT8=
EXTT9=
EXTT10=
PLAYORDER=
